<svg xmlns="http://www.w3.org/2000/svg" width="760" height="442" viewBox="0 0 760 442" font-family="system-ui, -apple-system, Segoe UI, sans-serif">
<rect width="760" height="442" fill="#ffffff"/>
<text x="20" y="30" font-size="17" font-weight="600" fill="#1b1b1b">53,557 rows to one page</text>
<rect x="20" y="56" width="720" height="40" rx="6" fill="#1b1b1b" opacity="0.82"/>
<text x="34" y="82" font-size="15" font-weight="600" fill="#ffffff">99,338</text>
<text x="106" y="82" font-size="13" fill="#ffffff" opacity="0.9">rows across 90 portals</text>
<text x="24" y="116" font-size="12" fill="#8a8a8a">48,962 point at a file another row already names</text>
<rect x="20" y="130" width="365" height="40" rx="6" fill="#1b1b1b" opacity="0.82"/>
<text x="34" y="156" font-size="15" font-weight="600" fill="#ffffff">50,376</text>
<text x="106" y="156" font-size="13" fill="#ffffff" opacity="0.9">distinct files</text>
<text x="24" y="190" font-size="12" fill="#8a8a8a">68,380 PDF rows are not a free English handbook</text>
<rect x="20" y="204" width="176" height="40" rx="6" fill="#1b1b1b" opacity="0.82"/>
<text x="34" y="230" font-size="15" font-weight="600" fill="#ffffff">24,324</text>
<text x="106" y="230" font-size="13" fill="#ffffff" opacity="0.9">free English handbook rows</text>
<text x="24" y="264" font-size="12" fill="#8a8a8a">9,459 are the same PDF under another year or market</text>
<rect x="20" y="278" width="120" height="40" rx="6" fill="#1b1b1b" opacity="0.82"/>
<text x="34" y="304" font-size="15" font-weight="600" fill="#ffffff">14,865</text>
<text x="106" y="304" font-size="13" fill="#ffffff" opacity="0.9">distinct PDFs we can fetch</text>
<text x="24" y="338" font-size="12" fill="#8a8a8a">6,244 rows the portal filed as a handbook are not one</text>
<rect x="20" y="352" width="135" height="40" rx="6" fill="#ff6a00" opacity="1"/>
<text x="34" y="378" font-size="15" font-weight="600" fill="#ffffff">18,564</text>
<text x="106" y="378" font-size="13" fill="#ffffff" opacity="0.9">vehicles pointed at one</text>
<text x="24" y="412" font-size="12" fill="#8a8a8a">and 0 of them is the service manual a shop needs</text>
</svg>