<svg viewBox="0 0 1440 359" width="1440" height="359" preserveAspectRatio="xMidYMid meet" font-family="Barlow,&quot;Segoe UI&quot;,system-ui,sans-serif" xmlns="http://www.w3.org/2000/svg" role="img"><rect width="1440" height="359" fill="#ece7dc"/><path d="M202.6 77.6 H320.4" stroke="#141414" stroke-width="2.5" fill="none"/><path d="M330.4 77.6 l-11 -6.5 v13 z" fill="#141414"/><path d="M504.9 77.6 H622.7" stroke="#141414" stroke-width="2.5" fill="none"/><path d="M632.7 77.6 l-11 -6.5 v13 z" fill="#141414"/><path d="M807.3 77.6 H925.1" stroke="#141414" stroke-width="2.5" fill="none"/><path d="M935.1 77.6 l-11 -6.5 v13 z" fill="#141414"/><path d="M1109.6 77.6 H1227.4" stroke="#141414" stroke-width="2.5" fill="none"/><path d="M1237.4 77.6 l-11 -6.5 v13 z" fill="#141414"/><path d="M353.8 280.8 H471.5" stroke="#141414" stroke-width="2.5" fill="none"/><path d="M481.5 280.8 l-11 -6.5 v13 z" fill="#141414"/><path d="M656.1 280.8 H773.9" stroke="#141414" stroke-width="2.5" fill="none"/><path d="M783.9 280.8 l-11 -6.5 v13 z" fill="#141414"/><path d="M958.5 280.8 H1076.2" stroke="#141414" stroke-width="2.5" fill="none"/><path d="M1086.2 280.8 l-11 -6.5 v13 z" fill="#141414"/><path d="M1324.7 127.2 V179.2" stroke="#141414" stroke-width="2.5" fill="none"/><path d="M266.5 179.2 L1324.7 179.2" stroke="#141414" stroke-width="2.5" fill="none"/><path d="M266.5 179.2 V221.2" stroke="#141414" stroke-width="2.5" fill="none"/><path d="M266.5 231.2 l-6.5 -11 h13 z" fill="#141414"/><rect x="228.6" y="46.1" width="75.8" height="29.0" rx="14.5" fill="#ece7dc"/><text x="266.5" y="67.3" text-anchor="middle" font-size="19" font-weight="600" fill="#3b362e">speaks</text><rect x="526.3" y="46.1" width="85.0" height="29.0" rx="14.5" fill="#ece7dc"/><text x="568.8" y="67.3" text-anchor="middle" font-size="19" font-weight="600" fill="#3b362e">streams</text><rect x="839.0" y="46.1" width="64.4" height="29.0" rx="14.5" fill="#ece7dc"/><text x="871.2" y="67.3" text-anchor="middle" font-size="19" font-weight="600" fill="#3b362e">hears</text><rect x="1117.6" y="46.1" width="111.8" height="29.0" rx="14.5" fill="#ece7dc"/><text x="1173.5" y="67.3" text-anchor="middle" font-size="19" font-weight="600" fill="#3b362e">transcribes</text><rect x="377.2" y="249.3" width="80.9" height="29.0" rx="14.5" fill="#ece7dc"/><text x="417.6" y="270.4" text-anchor="middle" font-size="19" font-weight="600" fill="#3b362e">queries</text><rect x="676.5" y="249.3" width="86.9" height="29.0" rx="14.5" fill="#ece7dc"/><text x="720.0" y="270.4" text-anchor="middle" font-size="19" font-weight="600" fill="#3b362e">answers</text><rect x="991.2" y="249.3" width="62.3" height="29.0" rx="14.5" fill="#ece7dc"/><text x="1022.4" y="270.4" text-anchor="middle" font-size="19" font-weight="600" fill="#3b362e">turns</text><rect x="768.1" y="147.7" width="55.0" height="29.0" rx="14.5" fill="#ece7dc"/><text x="795.6" y="168.8" text-anchor="middle" font-size="19" font-weight="600" fill="#3b362e">calls</text><rect x="28.0" y="28.0" width="174.6" height="99.2" rx="14" fill="#141414" stroke="#e85d04" stroke-width="3"/><text x="115.3" y="81.5" text-anchor="middle" font-size="24.0" font-weight="700" fill="#ece7dc">Mechanic</text><rect x="330.4" y="28.0" width="174.6" height="99.2" rx="14" fill="#ece7dc" stroke="#141414" stroke-width="3"/><text x="417.6" y="81.5" text-anchor="middle" font-size="24.0" font-weight="700" fill="#141414">Mic</text><rect x="632.7" y="28.0" width="174.6" height="99.2" rx="14" fill="#e85d04" stroke="#8f3a02" stroke-width="3"/><text x="720.0" y="66.7" text-anchor="middle" font-size="24.0" font-weight="700" fill="#ffffff">Voice</text><text x="720.0" y="96.3" text-anchor="middle" font-size="24.0" font-weight="700" fill="#ffffff">Agent API</text><rect x="935.1" y="28.0" width="174.6" height="99.2" rx="14" fill="#e85d04" stroke="#8f3a02" stroke-width="3"/><text x="1022.4" y="81.5" text-anchor="middle" font-size="24.0" font-weight="700" fill="#ffffff">Flux STT</text><rect x="1237.4" y="28.0" width="174.6" height="99.2" rx="14" fill="#e85d04" stroke="#8f3a02" stroke-width="3"/><text x="1324.7" y="66.7" text-anchor="middle" font-size="24.0" font-weight="700" fill="#ffffff">OpenAI</text><text x="1324.7" y="96.3" text-anchor="middle" font-size="24.0" font-weight="700" fill="#ffffff">think</text><rect x="179.2" y="231.2" width="174.6" height="99.2" rx="14" fill="#e85d04" stroke="#8f3a02" stroke-width="3"/><text x="266.5" y="269.9" text-anchor="middle" font-size="24.0" font-weight="700" fill="#ffffff">Function</text><text x="266.5" y="299.5" text-anchor="middle" font-size="24.0" font-weight="700" fill="#ffffff">calls</text><rect x="481.5" y="231.2" width="174.6" height="99.2" rx="14" fill="#ece7dc" stroke="#141414" stroke-width="3"/><text x="568.8" y="269.9" text-anchor="middle" font-size="24.0" font-weight="700" fill="#141414">Mechanica</text><text x="568.8" y="299.5" text-anchor="middle" font-size="24.0" font-weight="700" fill="#141414">tools</text><rect x="783.9" y="231.2" width="174.6" height="99.2" rx="14" fill="#e85d04" stroke="#8f3a02" stroke-width="3"/><text x="871.2" y="269.9" text-anchor="middle" font-size="24.0" font-weight="700" fill="#ffffff">Aura-2</text><text x="871.2" y="299.5" text-anchor="middle" font-size="24.0" font-weight="700" fill="#ffffff">TTS</text><rect x="1086.2" y="231.2" width="174.6" height="99.2" rx="14" fill="#141414" stroke="#e85d04" stroke-width="3"/><text x="1173.5" y="269.9" text-anchor="middle" font-size="24.0" font-weight="700" fill="#ece7dc">Manual</text><text x="1173.5" y="299.5" text-anchor="middle" font-size="24.0" font-weight="700" fill="#ece7dc">page</text></svg>