<svg xmlns="http://www.w3.org/2000/svg" viewBox="0 0 96 96" width="96" height="96" fill="none" stroke="#141414" stroke-width="2.5" stroke-linecap="round" stroke-linejoin="round"><title>Brake fluid</title><g transform="translate(-16 -16) scale(1.3333)" stroke-width="1.875"><path d="M30 55c6-5 12 5 18 0s12-5 18 0v17a6 6 0 0 1-6 6H36a6 6 0 0 1-6-6z" fill="#e85d04" stroke="none"/><rect x="38" y="18" width="20" height="12" rx="3"/><path d="M26 38v34a6 6 0 0 0 6 6h32a6 6 0 0 0 6-6V38a8 8 0 0 0-8-8H34a8 8 0 0 0-8 8z"/><path d="M48 34c4 6 7 9 7 12a7 7 0 0 1-14 0c0-3 3-6 7-12z"/></g></svg>
